<svg width="128" height="209" viewBox="0 0 128 209" fill="none" xmlns="http://www.w3.org/2000/svg">
<path d="M68.3213 188.741C68.3322 191.41 68.6884 193.866 69.1292 196.334C69.3493 197.587 69.5919 198.824 69.8023 200.156C69.96 201.55 70.3635 202.715 69.8875 205.208C69.9061 205.155 69.9317 205.076 69.9599 204.943C69.9743 204.84 70.0617 204.565 69.9965 203.918C69.9728 203.74 69.9593 203.617 69.869 203.305C69.7629 202.953 69.5717 202.515 69.2275 202.082C68.8889 201.65 68.3867 201.253 67.8697 201.022C67.4143 200.816 67.0087 200.735 66.6542 200.703C65.9667 200.643 65.4465 200.799 65.2951 200.843C65.106 200.899 64.9701 200.955 64.8628 201.003C64.6399 201.105 64.5747 201.148 64.5158 201.18C64.4588 201.212 64.4243 201.233 64.4035 201.244C64.3709 201.26 64.368 201.256 64.3814 201.237C64.4345 201.163 64.6096 200.976 64.7689 200.797C65.1072 200.422 65.4903 199.999 65.8935 199.569C66.7098 198.7 67.592 197.816 68.5866 196.919C73.9635 192.115 76.3573 191.115 80.8355 187.611C80.8544 187.595 80.9141 187.549 80.9338 187.533C82.0099 186.794 83.2824 185.56 84.6955 183.849C90.9703 176.013 97.3872 167.608 99.667 163.559C101.917 159.446 103.429 159.914 107.055 154.34C110.799 148.819 113.263 145.566 118.387 141.937C118.731 141.718 119.218 141.415 119.697 141.17C121.139 140.42 123.078 139.327 124.177 137.546C125.378 135.849 123.994 133.661 121.633 132.524C116.935 130.182 111.273 130.414 108.479 130.927C102.349 131.954 95.3804 133.629 91.5953 135.942C90.4205 136.626 89.5119 137.193 88.7986 137.63C88.4969 137.815 88.308 137.845 88.2438 137.77C88.2438 137.77 88.2438 137.77 88.2437 137.77C88.1643 137.676 88.2805 137.416 88.6268 137.116C90.2947 135.667 92.917 133.598 96.4131 131.628C103.127 128.362 104.246 128.537 114.298 128.345C118.676 128.645 122.535 129.034 126.014 132.119C127.885 133.629 128.412 137.508 126.857 139.614C125.508 141.785 123.652 143.114 121.572 144.327C120.663 144.836 119.63 145.655 118.551 146.618C110.645 154.447 111.262 158.308 100.897 170.778C92.2997 180.918 92.1746 184.7 84.7139 192.513L84.8448 192.409C83.2546 193.969 81.4254 195.723 79.1998 197.82C77.5725 199.353 75.9066 200.931 74.2032 202.565C73.3492 203.384 72.4945 204.21 71.6141 205.055C71.1787 205.472 70.7245 205.907 70.2354 206.358C69.9735 206.598 69.7417 206.811 69.3693 207.12C69.1656 207.276 69.0344 207.427 68.3865 207.805C68.2694 207.87 68.1327 207.94 67.9562 208.015C67.8678 208.052 67.7692 208.091 67.6559 208.129C67.5307 208.169 67.4614 208.197 67.1677 208.261C66.6697 208.358 65.8375 208.46 64.7926 208.026C63.4996 207.531 62.6488 206.109 62.5113 205.374C62.2713 204.385 62.4263 203.807 62.4431 203.634C62.4843 203.397 62.5309 203.223 62.5756 203.072C62.684 202.967 62.768 201.473 62.7554 200.281C62.7534 199.027 62.7187 197.702 62.6816 196.419C62.6025 193.811 62.5031 191.261 62.4019 188.787C62.1326 182.238 61.9442 176.449 61.6471 172.468C61.1555 165.834 60.518 157.65 60.2117 148.693C60.0712 144.495 60.0116 140.143 60.0865 135.704C60.1923 129.631 60.2012 122.919 60.5544 115.979C60.63 113.678 61.2663 111.024 61.8782 109.111C62.451 107.23 62.7038 105.62 62.7882 103.687C62.9389 99.8881 62.5482 95.7718 62.1809 91.7942C62.1229 91.2083 62.0982 90.641 62.0835 90.1172C62.1685 74.9438 63.2533 54.4851 62.8384 44.211C62.8301 43.8958 62.822 43.5913 62.8142 43.2978C62.4933 33.375 62.3262 30.9367 60.838 21.4909C60.1924 17.4948 59.4983 12.3888 59.0053 7.39881C58.8306 5.59944 58.6909 3.82944 58.6037 2.12728C58.4667 -1.11786 58.9801 -0.437514 59.6633 2.72807C60.0063 4.30623 60.2805 5.78499 60.5296 7.16276C61.0129 9.82162 61.385 12.0464 61.9772 13.5974C63.7586 18.2829 64.473 20.3131 64.5865 26.5469C64.6749 32.7724 66.3713 35.5374 66.5247 39.1658C66.589 40.8158 66.4457 41.7211 66.4569 43.9471C66.4611 46.6124 66.68 51.1819 67.1892 61.1604C67.9142 75.423 67.8524 85.0733 68.4939 90.9891C68.7751 92.8776 68.9925 94.5622 69.1617 96.1044C69.3966 98.4298 69.6415 101.562 69.2494 105.432C69.0635 107.344 68.5108 109.595 67.8732 111.408C67.2562 113.198 66.8992 114.591 66.7585 116.373C66.4196 120.575 66.2581 124.889 66.2996 128.819C66.3447 133.806 66.4196 141.094 66.7028 148.468C67.0479 157.625 67.644 166.914 68.2064 172.001C69.2197 181.009 68.3338 181.26 68.3199 188.337C68.3201 188.471 68.3206 188.605 68.3213 188.741Z" fill="#BDA490"/>
<path d="M9.94487 165.153C8.16691 163.258 5.79018 162.925 3.70259 162.274C1.65696 161.187 0.939108 159.675 0.503153 158.48C-0.764395 153.283 0.832145 152.904 0.2436 148.185C-0.030163 145.361 0.306591 142.409 0.306411 140.546C0.253364 138.99 0.280606 137.808 0.140718 136.897C-0.118875 134.556 1.24653 134.507 2.14106 131.362C3.28956 128.143 5.58632 126.597 8.36704 126.046C11.2882 125.033 19.0951 126.091 21.959 126.345C24.9295 126.4 27.6898 128.499 29.3565 129.46C29.9108 129.772 30.2653 130.043 30.5617 130.303C30.6283 130.36 30.6834 130.428 30.6766 130.474C30.6788 130.489 30.6656 130.488 30.6965 130.528C30.6959 130.537 30.7404 130.551 30.7067 130.636C30.6522 130.698 30.6324 130.671 30.625 130.674C30.61 130.67 30.61 130.666 30.6071 130.662C30.603 130.654 30.6014 130.647 30.5991 130.64C30.5903 130.611 30.5829 130.58 30.5931 130.558C30.5932 130.558 30.5932 130.558 30.5932 130.558C30.6026 130.528 30.6506 130.515 30.6618 130.488C30.6605 130.485 30.6647 130.48 30.6411 130.473C30.6424 130.48 30.5508 130.429 30.5074 130.586C30.5194 130.696 30.5456 130.677 30.5484 130.691C30.5677 130.714 30.5526 130.711 30.5509 130.719C30.5427 130.729 30.5329 130.739 30.5207 130.746C30.4788 130.777 30.3505 130.755 30.2875 130.735C29.3767 130.407 28.0235 130.072 26.3014 129.946C23.1631 129.801 23.0896 128.731 18.9867 128.367C14.9246 128.235 12.4503 128.749 8.72862 129.855C6.86777 130.58 6.46058 131.949 6.21927 133.251C6.00216 134.629 5.80165 136.06 5.23795 139.218C5.18354 139.542 5.14531 139.863 5.12118 140.18C4.42598 146.544 6.27075 147.582 7.31263 153.379C7.47183 154.098 7.64829 154.81 7.8251 155.323C7.91068 155.578 8.00072 155.777 8.02384 155.834C8.04173 155.9 7.98717 155.753 7.55802 155.518C13.1759 159.41 16.159 163.251 19.0089 164.891C19.1213 164.963 19.2364 165.036 19.3545 165.111C22.6409 167.193 27.5497 169.466 32.5214 172.47C36.5123 174.911 41.6756 177.148 46.2017 180.668C47.4124 181.621 48.5606 182.599 49.6402 183.635C52.278 186.128 55.4751 189.534 58.0107 192.307C60.8461 195.125 61.601 198.585 62.4656 199.292C62.6756 199.513 62.8717 199.627 63.1632 199.685C66.2077 200.019 67.7023 200.42 70.6866 199.234C71.1544 199.001 71.6163 198.716 72.0381 198.341C73.505 197.037 75.1754 195.523 76.5999 194.059C77.0747 193.564 77.3244 193.374 77.4611 193.514C77.5948 193.655 77.552 194.165 77.2468 194.839C76.3315 196.818 74.9634 197.928 74.5728 199.091C74.382 199.64 74.197 200.112 73.9942 200.531C73.0471 202.134 71.3939 202.984 69.0131 202.791C66.0038 202.447 64.8052 203.723 63.2275 203.553C63.1768 203.546 63.1277 203.539 63.08 203.531C61.7554 203.389 60.5525 202.722 59.4591 201.3C58.3565 199.955 57.7597 197.826 55.3999 195.928C55.2983 195.851 55.1982 195.779 55.0952 195.708C48.9735 190.864 45.8437 188.603 43.4429 186.911C43.0657 186.648 42.6366 186.318 42.1582 185.935C39.8433 184.031 35.8671 181.068 32.1953 179.332C28.0145 177.311 19.6616 172.841 15.702 170.546C15.5767 170.476 15.4573 170.411 15.3435 170.351C11.7151 168.388 12.2375 167.574 9.94487 165.153Z" fill="#BDA490"/>
</svg>
