<svg width="170" height="332" viewBox="0 0 170 332" fill="none" xmlns="http://www.w3.org/2000/svg">
<path d="M104.802 123.402C102.21 136.307 100.958 147.91 99.6399 161.178C99.5231 164.416 99.3806 167.838 99.1779 171.505C98.2695 191.193 97.0388 194.181 97.8301 216.851C97.9072 218.731 97.982 220.599 98.0561 222.479C98.8861 243.189 99.4935 263.093 100.559 272.329C101.743 282.387 100.252 283.549 101.662 297.876C101.68 298.062 101.698 298.245 101.716 298.425C103.028 310.256 103.048 318.724 102.498 328.32C102.496 328.358 102.496 328.375 102.492 328.346C102.489 328.328 102.488 328.315 102.476 328.247C102.461 328.181 102.446 328.082 102.361 327.891C102.272 327.714 102.106 327.355 101.559 327.073C101 326.777 100.287 326.923 100.008 327.094C99.699 327.264 99.5965 327.4 99.521 327.483C99.3747 327.67 99.4216 327.623 99.3977 327.658C99.3795 327.694 99.389 327.683 99.4056 327.652C99.4555 327.566 99.5546 327.346 99.6335 327.169C99.8066 326.778 99.9799 326.375 100.163 325.961C100.523 325.144 100.919 324.279 101.333 323.436C104.04 317.543 112.209 304.08 126.377 300.533C138.289 297.51 148.13 289.898 152.661 285.164C155.111 282.699 157.59 280.084 160.106 277.475L159.729 278.236C160.65 274.398 160.464 270.267 164.871 267.223C165.554 266.944 166.472 266.982 167.119 267.321C167.778 267.65 168.22 268.143 168.539 268.654C168.854 269.172 169.064 269.731 169.123 270.374C169.178 270.976 169.064 271.928 168.239 272.482C167.434 272.983 166.692 272.808 166.212 272.687C165.691 272.54 165.247 272.319 164.863 272.103C164.052 271.639 163.417 271.15 162.738 270.591C160.783 268.921 158.476 268.022 156.496 268.327C155.136 268.518 153.992 269.179 153.301 270.009C152.961 270.416 152.729 270.897 152.758 271.273C152.772 271.64 153.121 271.843 153.532 271.884C154.23 271.936 154.61 271.87 154.641 271.977C154.641 271.977 154.641 271.977 154.641 271.978C154.652 272.058 154.201 272.517 153.038 272.315C152.778 272.243 152.503 272.088 152.33 271.818C152.156 271.553 152.116 271.227 152.146 270.945C152.212 270.368 152.493 269.868 152.837 269.425C153.539 268.541 154.573 267.862 155.795 267.508C158.268 266.759 161.236 267.659 163.649 269.405C164.474 269.981 165.296 270.488 166.156 270.793C166.549 270.938 167.04 270.987 167.134 270.912C167.18 270.875 167.104 270.911 167.109 270.89C167.108 270.868 167.119 270.746 167.086 270.602C166.996 270.12 166.574 269.565 166.25 269.425C166.086 269.347 165.99 269.353 165.894 269.378C165.8 269.404 165.665 269.473 165.505 269.611C164.847 270.192 164.314 271.397 163.956 272.416C163.224 274.553 162.832 276.578 162.466 278.672C162.434 278.858 162.242 279.255 162.11 279.39C158.08 283.299 154.344 287.902 144.266 295.016C138.46 298.925 132.795 301.451 127.128 303.216C121.745 304.907 117.099 307.898 113.042 312.241C111.019 314.411 109.142 316.93 107.43 319.821C106.573 321.267 105.754 322.815 104.981 324.459C104.592 325.287 104.222 326.121 103.847 327.012C103.662 327.448 103.471 327.915 103.283 328.366C103.172 328.633 103.091 328.831 102.945 329.151C102.912 329.223 102.882 329.29 102.812 329.426C102.779 329.487 102.743 329.553 102.696 329.63C102.673 329.669 102.646 329.711 102.614 329.758C102.55 329.848 102.453 329.998 102.22 330.207C101.998 330.387 101.5 330.819 100.545 330.728C99.5624 330.605 99.0547 329.886 98.9107 329.589C98.7416 329.25 98.7177 329.068 98.688 328.921C98.6768 328.853 98.6715 328.81 98.6662 328.763C98.6474 328.581 98.647 328.453 98.6478 328.32C98.6558 327.908 98.6649 327.511 98.6749 327.128C99.4437 314.678 98.2039 307.594 97.2446 298.764C96.2057 289.675 95.1613 279.381 94.7266 261.28C94.3075 242.725 93.5415 232.907 92.6497 222.666C91.878 213.365 90.9197 203.713 90.8973 186.847C90.9077 178.507 91.1703 169.635 91.8035 160.681C96.7086 131.216 103.278 102.875 104.433 86.6368C105.52 71.1832 108.036 50.0447 100.291 31.3899C97.3609 25.3018 92.9917 19.8032 87.4175 15.5649C66.753 -1.61589 23.8426 5.64432 11.5656 33.7733C10.6883 35.6155 9.91791 37.5247 9.25691 39.45C4.02615 54.3179 4.85119 75.1494 12.8644 91.321C20.2817 108.222 37.8262 115.566 48.1297 112.903C54.3526 111.898 58.8869 109.764 62.7541 107.654C70.7128 102.208 73.3706 94.0456 73.1471 79.9572C72.7905 74.1318 71.5602 66.9358 67.5481 61.0655C63.7323 54.8386 55.3841 53.0939 48.9597 55.7707C45.7072 56.9625 44.4417 57.6755 44.704 57.2824C45.0235 56.93 46.7635 55.583 50.1477 54.315C55.1612 52.3928 60.6028 52.9511 64.231 55.369C67.8956 57.7155 69.9077 60.88 71.4094 63.2062C76.665 72.9469 78.0029 78.4676 75.257 92.2249C72.8536 101.25 69.672 107.137 64.4903 110.652C62.1378 112.199 59.9731 113.414 57.341 114.412C53.441 115.758 51.3853 116.37 45.0807 116.851C39.4184 117.002 25.5129 117.245 12.7965 99.9752C-6.15942 69.8307 -0.0045619 44.8905 5.71719 31.0798C6.93674 28.3685 8.28621 25.9919 9.69106 23.87C17.1712 8.74723 51.7872 -6.86048 77.0062 3.18141C86.6157 6.16246 99.6417 14.7387 106.116 28.5545C115.44 50.7382 111.451 74.9079 110.988 87.1728C109.17 107.468 107.994 107.353 104.802 123.402Z" fill="#BDA490"/>
<path d="M35.5274 258.018C34.1384 254.32 30.1356 253.517 27.3273 248.578C25.3687 244.745 25.1226 242.329 25.929 238.452C26.2666 237.195 26.775 235.66 27.993 233.998C33.6197 227.659 40.7534 229.704 43.3028 229.003C46.1035 228.624 46.2565 230.142 50.0638 230.401C52.8151 230.651 54.7565 231.171 56.7983 232.193C57.5831 232.601 58.282 233.027 59.0949 233.569C60.4619 234.499 63.4805 236.299 65.8761 238.862C68.3767 241.376 69.7191 244.904 70.1157 246.879C71.1819 251.049 67.9797 255.203 65.8303 256.615C65.1542 257.1 64.4551 257.37 63.8699 257.248C63.6096 257.187 63.5625 257.028 63.6033 256.944C63.6034 256.944 63.6034 256.944 63.6034 256.944C63.6604 256.831 63.7856 256.769 63.9575 256.739C64.957 256.531 66.1687 254.928 66.6807 252.981C67.132 251.147 67.3208 250.218 67.5454 249.086C67.7135 247.979 67.9469 246.545 66.8717 244.365C64.3465 240.168 61.2986 239.177 56.1097 236.202C55.8575 236.067 55.6058 235.943 55.3552 235.829C50.4493 233.999 48.2959 235.352 40.4604 234.163C33.5371 233.653 32.0043 236.853 32.1575 239.638C32.2128 240.192 32.3287 240.739 32.6937 241.677C34.5249 246.432 42.2553 254.194 42.6825 262.117C42.696 262.753 42.9914 263.586 43.3467 264.217C45.4121 268.02 51.07 272.142 57.5938 275.2C60.0274 276.367 62.8644 277.291 65.8759 278.006C72.8802 279.682 76.9157 286.002 79.1964 290.659C79.7415 291.751 80.2975 292.898 80.8608 293.842C83.2974 299.186 82.8826 302.854 83.702 306.864C84.2976 310.68 85.1196 314.157 86.2137 315.609C86.5845 316.109 86.9012 316.322 87.2466 316.386C91.3839 316.711 93.5084 319.008 94.986 323.191C95.6153 324.67 96.2608 326.276 97.6696 327.131C98.4359 327.602 99.2148 328.12 99.9328 328.662C100.3 328.939 100.655 329.223 100.99 329.518C101.164 329.67 101.328 329.821 101.487 329.977C101.522 330.013 101.564 330.055 101.595 330.087C101.598 330.091 101.611 330.102 101.585 330.089C101.566 330.082 101.609 330.093 101.5 330.057C101.456 330.051 101.311 329.991 101.11 330.151C100.923 330.355 100.978 330.44 100.97 330.496C101.003 330.686 101.014 330.633 101.014 330.647C101.02 330.648 101.005 330.615 100.993 330.586C100.947 330.474 100.902 330.344 100.875 330.221C100.755 329.672 100.927 329.299 101.057 329.138C101.194 328.972 101.308 328.959 101.369 329.036C101.434 329.113 101.458 329.276 101.518 329.473C101.549 329.573 101.589 329.678 101.65 329.787C101.68 329.84 101.716 329.898 101.757 329.954C101.778 329.983 101.801 330.012 101.825 330.041C101.838 330.059 101.849 330.07 101.866 330.092C101.875 330.103 101.88 330.11 101.894 330.129C101.901 330.139 101.908 330.151 101.919 330.168C101.924 330.179 101.926 330.179 101.947 330.224C101.956 330.275 102.02 330.302 101.986 330.588C101.985 330.63 101.902 330.859 101.748 330.958C101.594 331.069 101.445 331.077 101.362 331.073C101.196 331.06 101.147 331.021 101.125 331.014C101.101 331.003 101.084 330.994 101.071 330.987C101.045 330.973 101.024 330.96 101.014 330.954C100.996 330.944 100.98 330.934 100.963 330.924C100.932 330.906 100.911 330.895 100.881 330.877C100.837 330.853 100.778 330.818 100.734 330.795C100.631 330.736 100.532 330.681 100.44 330.631C100.239 330.52 100.057 330.422 99.8561 330.313C99.4717 330.105 99.1114 329.913 98.7493 329.722C98.0394 329.351 97.3863 329.026 96.7762 328.79C96.2286 328.567 95.755 328.324 95.3075 328.112C92.1054 326.352 91.6606 324.318 91.0565 321.672C90.7299 320.372 89.9454 320.084 89.2594 320.076C88.5527 320.07 87.9092 320.306 87.1633 320.233C87.0798 320.229 86.9961 320.223 86.9126 320.214C82.8009 318.934 82.5056 317.504 79.3916 307.706C77.9985 302.925 76.8894 298.22 76.0893 297.25C73.9204 294.274 72.9385 292.398 71.8504 290.923C70.3659 288.814 67.9606 284.917 64.3305 283.948C62.4797 283.429 60.6541 282.873 58.949 282.354C52.5014 280.787 40.5676 273.406 37.5317 267.288C36.5532 265.683 36.1056 264.205 36.0141 262.858C35.9382 261.383 36.3904 260.56 35.5274 258.018Z" fill="#BDA490"/>
</svg>
